<svg width="252" height="57" viewBox="0 0 252 57" fill="none" xmlns="http://www.w3.org/2000/svg">
<g clip-path="url(#clip0_1_37662)">
<path d="M25.6501 3.02999C27.1741 3.06599 230.298 2.99999 232.524 3.02999C237.27 3.10799 248.514 2.99399 250.746 11.796C253.35 22.074 251.244 43.938 250.248 47.574C249.258 51.21 247.524 56.994 238.518 56.994H16.0861C14.5981 56.994 3.19812 56.418 1.21212 45.51C-0.767877 34.608 0.222123 19.572 0.450123 16.308C0.678123 13.05 1.29612 4.03799 12.3661 3.37199C19.2421 2.96399 22.8961 2.96399 25.6501 3.02999Z" fill="#578246"/>
<path d="M25.6501 0.0299754C27.1741 0.0659754 230.298 -2.46287e-05 232.524 0.0299754C237.27 0.107975 248.514 -0.00602455 250.746 8.79598C253.35 19.074 251.244 40.938 250.248 44.574C249.258 48.21 247.524 53.994 238.518 53.994H16.0861C14.5981 53.994 3.19812 53.418 1.21212 42.51C-0.767877 31.608 0.222123 16.572 0.450123 13.308C0.678123 10.05 1.29612 1.03798 12.3661 0.377975C19.2481 -0.0360246 22.9021 -0.0300246 25.6501 0.0299754Z" fill="#99C08E"/>
<path d="M77.3065 32.8C77.0005 32.764 75.9745 32.71 74.2285 32.638C72.4645 32.566 71.4205 32.494 71.0785 32.458C70.9705 32.458 70.7905 32.458 70.5745 32.476C70.3405 32.494 70.1605 32.494 70.0525 32.476C69.9625 32.476 69.8725 32.44 69.7645 32.368C69.6565 32.314 69.6025 32.26 69.6025 32.188C69.4945 31.63 69.4225 30.946 69.3685 30.118C69.3505 30.082 69.3685 30.028 69.4405 29.956C69.5125 29.884 69.5665 29.848 69.6205 29.83C70.0165 29.758 70.7185 29.65 71.7265 29.542C72.7165 29.434 73.7785 29.344 74.8945 29.236C76.0105 29.146 76.7125 29.074 77.0005 29.038C77.5765 28.984 78.7285 28.93 80.4565 28.894C82.1845 28.858 83.1025 28.84 83.2465 28.84C83.3545 28.84 83.5345 28.822 83.7685 28.804C84.0025 28.786 84.1825 28.768 84.2905 28.768C84.3985 28.768 84.5785 28.768 84.8125 28.768C85.3885 28.822 85.6045 29.128 85.4605 29.704C85.2625 30.388 85.0465 31.108 84.7945 31.864C84.7405 32.026 84.6145 32.152 84.3985 32.224C84.1105 32.332 83.8045 32.404 83.4985 32.422C83.0305 32.476 82.0045 32.548 80.4385 32.62C78.8545 32.692 77.8105 32.764 77.3065 32.8ZM75.5965 19.354C77.0545 19.246 77.8645 19.192 78.0445 19.174C78.3505 19.174 78.6925 19.282 79.0525 19.48C79.1245 19.534 79.1965 19.624 79.2685 19.75C79.3225 19.876 79.3585 19.984 79.3585 20.074C79.3405 20.902 79.4485 21.64 79.6645 22.288C79.7545 22.612 79.9525 22.792 80.2405 22.864C81.0685 23.098 82.1305 23.404 83.3905 23.8C83.6065 23.872 83.7505 23.962 83.8405 24.07C83.9125 24.178 83.9125 24.34 83.8225 24.556C83.7505 24.7 83.6965 24.916 83.6605 25.204C83.6065 25.492 83.5705 25.654 83.5525 25.726C83.4445 26.158 83.2285 26.446 82.9405 26.626C82.6345 26.806 82.2385 26.932 81.7705 27.004C81.6985 27.022 81.4645 27.058 81.1045 27.13C80.7445 27.202 80.4565 27.238 80.2765 27.238C79.9885 27.238 79.7185 27.13 79.4305 26.878C79.0885 26.608 78.7825 26.284 78.5125 25.888C78.0985 25.312 77.5945 24.898 76.9825 24.628C76.7305 24.52 76.4605 24.52 76.1365 24.664C75.5245 24.952 74.7685 25.33 73.9045 25.798C73.8685 25.834 73.8145 25.852 73.7605 25.87C73.5085 26.014 73.3105 26.122 73.1665 26.194C73.0225 26.266 72.8245 26.338 72.5905 26.392C72.3385 26.464 72.1225 26.482 71.9065 26.446C71.6365 26.446 71.4565 26.392 71.3665 26.302C71.2585 26.23 71.2045 26.05 71.1685 25.798C71.1325 25.564 71.0785 25.33 71.0065 25.096C70.7185 24.214 70.9885 23.548 71.8345 23.116C73.9225 22.072 75.0025 21.532 75.0925 21.496C75.3085 21.388 75.4705 21.244 75.5425 21.064C75.6145 20.884 75.6685 20.668 75.6865 20.38C75.6865 20.344 75.6505 20.002 75.5965 19.354ZM103.082 18.238C103.082 18.256 103.082 18.274 103.118 18.274C103.154 18.31 103.226 18.328 103.334 18.364C103.442 18.4 103.532 18.418 103.604 18.454C103.676 18.49 103.712 18.526 103.73 18.562C103.82 18.904 103.856 19.3 103.838 19.732C103.82 19.876 103.73 20.83 103.586 22.594C103.46 23.926 103.352 25.258 103.244 26.59C103.118 27.886 103.046 28.66 103.046 28.912C103.01 29.128 102.992 29.416 102.974 29.794C102.956 30.172 102.938 30.514 102.92 30.82C102.884 31.126 102.866 31.414 102.83 31.684C102.794 31.936 102.614 32.296 102.326 32.782C102.254 32.908 102.092 32.962 101.84 32.962C101.786 32.98 101.264 32.98 100.256 32.98C100.076 32.98 99.9325 32.944 99.8245 32.836C99.7165 32.728 99.6445 32.602 99.6445 32.422L99.5185 30.532C99.5185 30.496 99.5005 30.37 99.4825 30.154C99.4465 29.938 99.4465 29.776 99.4645 29.668C99.5005 29.146 99.5725 28.624 99.6805 28.102C99.7345 27.76 99.7165 27.526 99.6085 27.418C99.5005 27.31 99.2845 27.292 98.9605 27.364C98.4565 27.472 98.0425 27.346 97.7185 27.022C97.3765 26.698 97.2505 26.302 97.3405 25.798C97.4125 25.33 97.6105 24.952 97.9345 24.664C98.2405 24.394 98.6365 24.232 99.1405 24.196C99.3745 24.196 99.5905 24.106 99.7705 23.944C99.9505 23.782 100.058 23.584 100.076 23.368C100.094 23.008 100.13 22.45 100.202 21.658C100.256 20.884 100.292 20.29 100.328 19.876C100.346 19.696 100.4 19.372 100.508 18.94C100.598 18.544 100.85 18.364 101.264 18.364C101.732 18.382 102.182 18.382 102.596 18.382C102.596 18.382 102.758 18.346 103.082 18.238ZM90.8965 28.462H94.3525H95.6485C95.9365 28.444 96.1705 28.606 96.3325 28.948C96.6205 29.668 96.6025 30.316 96.2425 30.892C96.0625 31.18 95.7025 31.36 95.1265 31.45C93.4345 31.72 92.2465 31.846 91.5625 31.846C91.5265 31.846 91.3645 31.864 91.0765 31.864C90.7885 31.864 90.6265 31.864 90.5545 31.864C90.4825 31.864 90.3385 31.846 90.1045 31.846C89.8705 31.846 89.6905 31.828 89.5825 31.81C89.4745 31.81 89.3125 31.792 89.1325 31.756C88.9345 31.738 88.7545 31.702 88.6105 31.666C88.4485 31.63 88.2865 31.594 88.1425 31.522C87.8365 31.432 87.6025 31.198 87.4225 30.838C87.2425 30.478 87.1885 30.082 87.2605 29.686C87.3505 29.182 87.4045 28.678 87.4405 28.174C87.4585 27.616 87.4945 26.806 87.5305 25.726C87.5665 24.646 87.5845 23.854 87.6205 23.35C87.6745 22.126 87.7465 21.334 87.8185 20.956C87.8545 20.686 88.0705 20.218 88.4485 19.57C88.4485 19.552 88.4845 19.534 88.5385 19.534C88.5925 19.534 88.6645 19.534 88.7545 19.534C88.8445 19.534 88.8985 19.534 88.9345 19.534C89.8705 19.498 90.4465 19.462 90.6445 19.444C92.1565 19.39 93.0565 19.354 93.3445 19.354C93.9385 19.354 94.6945 19.39 95.6305 19.462C95.8285 19.48 95.9905 19.57 96.0985 19.732C96.4225 20.236 96.5125 20.758 96.3685 21.298C96.2245 21.838 95.8825 22.18 95.3425 22.342C95.0725 22.432 94.8025 22.504 94.5145 22.576C94.2265 22.648 93.8845 22.72 93.4705 22.792C93.0385 22.882 92.7685 22.936 92.6425 22.972C92.4985 23.008 92.2465 23.044 91.8685 23.116C91.4905 23.188 91.2025 23.26 91.0045 23.296C90.6805 23.386 90.5725 23.62 90.6445 23.998C90.7165 24.43 90.8065 24.682 90.8785 24.754C90.9505 24.826 91.1845 24.862 91.5625 24.826C91.7605 24.826 93.0025 24.718 95.2885 24.52H95.3425H95.4145C95.4865 24.538 95.5945 24.538 95.7745 24.52C95.9545 24.502 96.0985 24.52 96.2065 24.556C96.3145 24.592 96.3865 24.7 96.4225 24.844C96.6385 25.744 96.5845 26.374 96.2785 26.716C96.0085 27.004 95.5405 27.202 94.8745 27.292C94.5865 27.346 94.1725 27.382 93.6325 27.4C93.0925 27.418 92.7145 27.436 92.5345 27.436C92.4985 27.436 92.4085 27.454 92.2285 27.454C92.0485 27.472 91.9405 27.49 91.8865 27.49C91.8325 27.508 91.7425 27.526 91.6165 27.562C91.4905 27.598 91.3825 27.634 91.2925 27.688C91.2025 27.742 91.1125 27.814 91.0405 27.886C91.0225 27.904 90.9505 28.03 90.8065 28.246C90.8425 28.336 90.8605 28.408 90.8965 28.462ZM116.888 17.536C117.572 17.5 117.95 17.482 117.986 17.482C118.382 17.5 118.76 17.536 119.156 17.59C119.552 17.644 119.894 17.68 120.2 17.698C120.542 17.734 120.722 17.932 120.74 18.274C120.74 18.706 120.776 19.372 120.83 20.254C120.884 21.154 120.92 21.82 120.938 22.27C120.956 22.612 120.956 23.224 120.956 24.088C120.956 24.97 120.956 25.582 120.956 25.906C120.956 26.392 120.956 27.382 120.956 28.894C120.956 30.406 120.956 31.414 120.956 31.9V31.936C120.956 32.188 120.92 32.44 120.848 32.656C120.686 33.106 120.398 33.322 119.984 33.304C119.786 33.304 119.552 33.322 119.3 33.322C119.048 33.322 118.832 33.322 118.652 33.286C118.508 33.286 118.346 33.232 118.202 33.142C118.04 33.07 117.932 32.962 117.896 32.854C117.536 31.99 117.356 31.324 117.338 30.856C117.284 29.812 117.248 28.03 117.23 25.546C117.212 23.062 117.194 21.37 117.158 20.452C117.158 20.164 117.14 19.876 117.104 19.552C117.068 19.228 117.032 18.868 116.996 18.454L116.888 17.536ZM105.854 19.606C108.23 19.714 109.544 19.75 109.76 19.75C109.958 19.768 110.336 19.804 110.876 19.84C111.416 19.876 111.848 19.912 112.136 19.912C112.604 19.93 113.198 19.894 113.936 19.822C114.296 19.786 114.602 19.876 114.818 20.056C115.034 20.236 115.16 20.452 115.232 20.704C115.286 20.956 115.304 21.226 115.268 21.514C115.25 21.622 115.214 21.784 115.142 21.982C115.07 22.18 115.034 22.324 115.034 22.414C114.998 22.81 114.764 23.008 114.368 23.008C113.432 23.044 112.694 23.044 112.19 23.026C111.92 23.026 111.02 22.99 109.49 22.9L109.166 22.864C108.788 22.792 108.554 22.918 108.446 23.206C108.32 23.512 108.266 23.692 108.266 23.764C108.266 25.744 108.302 27.166 108.338 28.048C108.338 28.102 108.374 28.156 108.446 28.21C108.518 28.282 108.572 28.3 108.626 28.3C108.806 28.336 109.076 28.354 109.436 28.372C109.796 28.39 110.03 28.408 110.156 28.408C112.172 28.57 113.594 28.696 114.44 28.768C114.494 28.768 114.566 28.84 114.638 28.948C114.71 29.074 114.764 29.182 114.764 29.254C114.728 29.902 114.674 30.316 114.602 30.496C114.53 30.676 114.26 31 113.81 31.504C113.702 31.612 113.558 31.684 113.414 31.684C113.252 31.702 112.838 31.72 112.19 31.756C111.542 31.792 111.038 31.846 110.696 31.882C109.508 32.044 108.176 31.918 106.7 31.522C106.412 31.45 106.178 31.324 105.998 31.162C105.818 31 105.71 30.748 105.638 30.424C105.494 29.848 105.386 29.182 105.35 28.462C105.314 27.742 105.296 27.094 105.314 26.5C105.332 25.924 105.332 25.276 105.314 24.556C105.278 23.404 105.386 22.216 105.656 21.028C105.656 20.992 105.728 20.506 105.854 19.606ZM131.728 18.274C131.908 18.274 132.286 18.274 132.844 18.31C133.384 18.346 133.78 18.346 134.014 18.328C134.122 18.328 134.302 18.328 134.536 18.328C134.752 18.346 134.932 18.346 135.04 18.328C136.426 18.256 137.632 18.31 138.658 18.526C139.45 18.706 139.792 19.228 139.72 20.092C139.684 20.398 139.648 21.046 139.612 22.018C139.576 22.558 139.558 22.99 139.54 23.314C139.504 23.638 139.45 24.016 139.36 24.484C139.27 24.952 139.144 25.348 139 25.708C138.874 26.014 138.712 26.23 138.496 26.356C137.956 26.698 137.47 26.932 137.056 27.058C136.894 27.094 136.786 27.094 136.714 27.094C136.642 27.094 136.516 27.094 136.336 27.076C136.156 27.058 136.048 27.04 135.976 27.04C134.356 26.986 133.438 26.95 133.24 26.932C132.88 26.914 132.52 26.734 132.196 26.374C131.854 26.014 131.656 25.654 131.62 25.294C131.548 24.826 131.53 24.304 131.53 23.728C131.53 23.152 131.548 22.72 131.584 22.396C131.602 22.09 131.638 21.568 131.71 20.83C131.728 20.578 131.746 20.326 131.746 20.038C131.746 19.768 131.728 19.444 131.728 19.084C131.728 18.724 131.728 18.454 131.728 18.274ZM134.194 20.812V23.17C134.194 23.458 134.248 23.656 134.338 23.728C134.428 23.818 134.626 23.872 134.932 23.872C135.004 23.872 135.148 23.89 135.328 23.89C135.508 23.89 135.634 23.89 135.742 23.89C135.958 23.89 136.174 23.836 136.354 23.692C136.534 23.548 136.624 23.386 136.642 23.17C136.678 22.144 136.57 21.298 136.3 20.632L134.194 20.812ZM145.084 23.8V26.122C145.084 26.32 145.048 26.68 145.012 27.184C144.976 27.472 144.796 27.634 144.508 27.634C143.86 27.652 143.32 27.652 142.852 27.616C142.582 27.616 142.348 27.508 142.168 27.328C141.988 27.148 141.88 26.932 141.88 26.68C141.862 25.636 141.862 24.34 141.88 22.792C141.88 22.702 141.88 22 141.916 20.686C141.934 19.39 141.952 18.58 141.97 18.292C141.97 17.932 142.096 17.698 142.348 17.554C142.402 17.518 142.51 17.464 142.672 17.374C142.834 17.302 142.96 17.23 143.05 17.194C143.122 17.158 143.23 17.122 143.374 17.068C143.518 17.014 143.644 16.978 143.77 16.96C143.896 16.942 144.022 16.942 144.166 16.942C144.382 16.96 144.544 16.978 144.652 17.014C144.904 17.122 145.03 17.302 145.03 17.572C145.03 17.806 145.03 18.4 145.066 19.372C145.102 20.344 145.12 20.92 145.156 21.1C145.174 21.244 145.282 21.334 145.498 21.352C146.362 21.424 146.848 21.46 146.956 21.478C147.208 21.55 147.37 21.748 147.406 22.108C147.46 22.648 147.37 23.134 147.118 23.548C147.046 23.674 146.83 23.764 146.506 23.8H145.084ZM137.686 30.424C140.134 30.28 141.52 30.208 141.826 30.172C142.132 30.154 142.492 30.118 142.924 30.082C143.356 30.046 143.716 30.01 144.004 29.974C144.292 29.938 144.544 29.92 144.724 29.92C144.958 29.92 145.138 30.226 145.246 30.802C145.264 30.928 145.282 31.18 145.282 31.54C145.282 31.954 145.174 32.368 144.958 32.8C144.886 32.926 144.724 33.016 144.472 33.052C144.22 33.088 143.374 33.142 141.934 33.214C140.494 33.286 139.648 33.34 139.378 33.376C139.306 33.394 139.252 33.394 139.18 33.394C138.874 33.394 138.226 33.412 137.236 33.43C136.246 33.448 135.526 33.466 135.076 33.484C134.968 33.484 134.77 33.502 134.518 33.52C134.266 33.538 134.068 33.538 133.942 33.538C133.528 33.538 133.186 33.466 132.934 33.304C132.844 33.268 132.772 33.178 132.7 33.07C132.628 32.962 132.61 32.872 132.61 32.764C132.556 32.242 132.52 31.504 132.484 30.532C132.448 29.56 132.412 28.894 132.394 28.516L132.376 28.264C132.376 28.084 132.376 27.922 132.376 27.742L132.358 27.49C132.394 27.49 132.484 27.472 132.646 27.436C132.808 27.4 132.916 27.364 132.97 27.346C133.096 27.328 133.384 27.31 133.834 27.31C134.356 27.31 134.68 27.346 134.824 27.382C134.968 27.436 135.04 27.526 135.04 27.652C135.04 27.706 135.058 27.832 135.094 28.012C135.13 28.192 135.166 28.318 135.166 28.372C135.166 28.57 135.202 28.93 135.31 29.47C135.31 29.542 135.328 29.704 135.364 29.938C135.382 30.172 135.418 30.37 135.472 30.55L137.686 30.424ZM157.054 26.464C155.578 26.536 154.786 26.554 154.642 26.554C151.726 26.554 150.088 26.518 149.692 26.41C149.332 26.32 149.134 26.14 149.08 25.888C149.026 25.636 149.062 25.258 149.206 24.754C149.26 24.682 149.296 24.592 149.314 24.466C149.332 24.34 149.386 24.232 149.476 24.16C149.512 24.124 149.602 24.088 149.728 24.088H152.752H155.776C155.866 24.088 156.1 24.106 156.496 24.142C156.892 24.178 157.108 24.214 157.162 24.214C157.27 24.214 158.26 24.232 160.096 24.268C161.932 24.304 162.994 24.322 163.282 24.358C163.336 24.358 163.408 24.412 163.48 24.484C163.552 24.556 163.606 24.628 163.624 24.682C163.696 25.15 163.696 25.51 163.624 25.762C163.516 26.158 163.174 26.374 162.598 26.41C162.418 26.428 161.482 26.446 159.808 26.446C158.116 26.464 157.198 26.482 157.054 26.482V26.464ZM153.49 20.92C155.506 20.812 156.586 20.74 156.73 20.722L158.674 20.596L160.816 20.506L162.058 20.65C162.076 20.668 162.112 20.686 162.148 20.686C162.184 20.704 162.238 20.74 162.328 20.776C162.418 20.83 162.49 20.884 162.562 20.938C162.616 20.992 162.67 21.064 162.706 21.154C162.742 21.244 162.76 21.334 162.742 21.424C162.706 21.604 162.652 21.802 162.58 21.982C162.508 22.162 162.436 22.378 162.346 22.612C162.238 22.864 162.184 23.026 162.148 23.116C159.142 23.188 157.54 23.206 157.324 23.188C157.216 23.188 155.542 23.134 152.266 23.026H151.834H151.402C150.97 23.026 150.7 22.972 150.592 22.864C150.466 22.756 150.412 22.54 150.448 22.234C150.448 22.054 150.484 21.766 150.574 21.406C150.646 21.046 150.7 20.848 150.7 20.794C150.718 20.668 150.754 20.47 150.79 20.218C150.826 19.966 150.844 19.768 150.88 19.642L151.168 18.076L153.076 17.266C154.696 17.338 155.938 17.284 156.766 17.086C156.874 17.05 156.982 17.032 157.108 17.014C157.234 17.014 157.378 17.014 157.54 17.014C157.684 17.014 157.81 17.032 157.918 17.032C158.008 17.032 158.152 17.05 158.35 17.068C158.548 17.086 158.674 17.104 158.746 17.104C159.142 17.14 159.7 17.212 160.456 17.284C161.194 17.374 161.734 17.428 162.058 17.446C162.31 17.482 162.49 17.536 162.598 17.608C162.706 17.68 162.742 17.806 162.706 17.986L162.508 19.102C162.112 19.498 161.734 19.678 161.374 19.678C161.014 19.696 160.492 19.696 159.808 19.696C159.124 19.696 158.638 19.678 158.35 19.678C157.342 19.678 156.442 19.696 155.668 19.732C155.506 19.75 155.254 19.786 154.93 19.822C154.588 19.858 154.336 19.876 154.156 19.876C153.94 19.894 153.796 19.93 153.706 19.984C153.598 20.038 153.562 20.128 153.562 20.254C153.544 20.29 153.526 20.524 153.49 20.92ZM151.834 29.578C151.798 29.578 151.708 29.596 151.564 29.596C151.42 29.614 151.312 29.614 151.258 29.614C151.186 29.614 151.114 29.614 151.006 29.596C150.898 29.578 150.808 29.542 150.772 29.506C150.718 29.47 150.664 29.398 150.61 29.326C150.556 29.254 150.52 29.146 150.52 29.02C150.502 28.948 150.484 28.84 150.448 28.66C150.412 28.48 150.394 28.336 150.394 28.21C150.394 28.048 150.412 27.886 150.466 27.706C150.466 27.634 150.52 27.562 150.628 27.49C150.736 27.418 150.844 27.364 150.97 27.364C155.83 27.364 159.214 27.4 161.158 27.508C161.554 27.544 161.86 27.58 162.094 27.652C162.364 27.742 162.526 27.868 162.58 28.012C162.634 28.228 162.67 28.462 162.67 28.696C162.67 28.966 162.616 29.29 162.544 29.668C162.4 30.298 162.04 30.748 161.446 31C161.122 31.144 160.528 31.252 159.682 31.324C159.376 31.36 158.944 31.378 158.368 31.378C157.792 31.396 157.396 31.414 157.162 31.414C157.126 31.414 156.478 31.432 155.236 31.45C153.976 31.468 153.292 31.486 153.166 31.522L153.184 31.954C153.4 31.954 154.21 31.954 155.614 31.936C157.018 31.918 157.846 31.9 158.062 31.9C158.548 31.9 158.98 31.9 159.358 31.882C159.61 31.882 160.006 31.864 160.528 31.828C161.032 31.792 161.41 31.774 161.662 31.774H161.698C162.022 31.774 162.202 31.882 162.202 32.098V32.188C162.094 32.692 162.004 33.088 161.932 33.34C161.842 33.592 161.698 33.772 161.5 33.88C161.302 33.988 160.978 34.024 160.51 34.024H160.294C159.826 34.024 159.16 33.988 158.314 33.934C157.468 33.88 156.874 33.844 156.532 33.826C155.992 33.808 155.524 33.808 155.11 33.826C154.696 33.844 154.228 33.844 153.724 33.826C153.22 33.808 152.77 33.754 152.374 33.682C151.834 33.574 151.456 33.394 151.24 33.142C151.024 32.89 150.898 32.566 150.826 32.134C150.808 32.062 150.808 31.864 150.808 31.558C150.808 31.54 150.808 31.414 150.826 31.18C150.826 30.838 150.934 30.604 151.114 30.46C151.294 30.334 151.6 30.262 152.068 30.244C153.796 30.208 156.082 30.136 158.944 30.028C159.304 30.028 159.484 29.902 159.484 29.686L159.466 29.596C159.466 29.542 159.466 29.488 159.466 29.434V29.326C159.466 29.308 159.376 29.29 159.196 29.29C159.016 29.29 158.692 29.29 158.224 29.308C157.756 29.326 157.27 29.344 156.748 29.362C156.226 29.398 155.488 29.434 154.552 29.47C153.616 29.506 152.698 29.542 151.834 29.578ZM178.096 17.536C178.78 17.5 179.158 17.482 179.194 17.482C179.59 17.5 179.968 17.536 180.364 17.59C180.76 17.644 181.102 17.68 181.408 17.698C181.75 17.734 181.93 17.932 181.948 18.274C181.948 18.706 181.984 19.372 182.038 20.254C182.092 21.154 182.128 21.82 182.146 22.27C182.164 22.612 182.164 23.224 182.164 24.088C182.164 24.97 182.164 25.582 182.164 25.906C182.164 26.392 182.164 27.382 182.164 28.894C182.164 30.406 182.164 31.414 182.164 31.9V31.936C182.164 32.188 182.128 32.44 182.056 32.656C181.894 33.106 181.606 33.322 181.192 33.304C180.994 33.304 180.76 33.322 180.508 33.322C180.256 33.322 180.04 33.322 179.86 33.286C179.716 33.286 179.554 33.232 179.41 33.142C179.248 33.07 179.14 32.962 179.104 32.854C178.744 31.99 178.564 31.324 178.546 30.856C178.492 29.812 178.456 28.03 178.438 25.546C178.42 23.062 178.402 21.37 178.366 20.452C178.366 20.164 178.348 19.876 178.312 19.552C178.276 19.228 178.24 18.868 178.204 18.454L178.096 17.536ZM166.666 20.308C166.792 20.092 166.99 19.948 167.242 19.894C168.718 19.624 169.852 19.426 170.644 19.318C171.832 19.156 172.93 19.138 173.956 19.282C173.974 19.282 174.028 19.3 174.136 19.3C174.226 19.318 174.298 19.336 174.334 19.336C174.37 19.336 174.442 19.354 174.514 19.372C174.586 19.39 174.64 19.408 174.694 19.444C174.748 19.48 174.802 19.534 174.856 19.57C174.946 19.66 175.036 19.84 175.144 20.11C175.594 21.406 175.792 22.846 175.72 24.466C175.684 25.06 175.594 25.924 175.45 27.076C175.414 27.328 175.378 27.868 175.324 28.732C175.27 29.596 175.18 30.244 175.072 30.694C174.946 31.198 174.784 31.522 174.604 31.702C174.46 31.846 174.028 31.954 173.344 31.99C172.66 32.044 172.03 32.044 171.49 32.008C171.202 32.008 171.058 31.918 171.022 31.738C170.986 31.666 170.986 31.594 171.022 31.486C171.04 31.378 171.076 31.27 171.112 31.144C171.148 31.036 171.166 30.946 171.166 30.892C171.22 30.568 171.274 30.244 171.31 29.902C171.382 29.308 171.418 28.66 171.454 27.958C171.472 27.094 171.454 25.816 171.4 24.106C171.382 23.854 171.346 23.674 171.292 23.566C171.13 23.278 170.752 23.206 170.176 23.332C169.51 23.494 168.322 23.548 166.612 23.476C166.522 23.476 166.468 23.458 166.432 23.422C166.378 23.386 166.36 23.278 166.378 23.134C166.486 21.406 166.576 20.452 166.666 20.308Z" fill="#578246"/>
<path d="M77.3065 34.8C77.0005 34.764 75.9745 34.71 74.2285 34.638C72.4645 34.566 71.4205 34.494 71.0785 34.458C70.9705 34.458 70.7905 34.458 70.5745 34.476C70.3405 34.494 70.1605 34.494 70.0525 34.476C69.9625 34.476 69.8725 34.44 69.7645 34.368C69.6565 34.314 69.6025 34.26 69.6025 34.188C69.4945 33.63 69.4225 32.946 69.3685 32.118C69.3505 32.082 69.3685 32.028 69.4405 31.956C69.5125 31.884 69.5665 31.848 69.6205 31.83C70.0165 31.758 70.7185 31.65 71.7265 31.542C72.7165 31.434 73.7785 31.344 74.8945 31.236C76.0105 31.146 76.7125 31.074 77.0005 31.038C77.5765 30.984 78.7285 30.93 80.4565 30.894C82.1845 30.858 83.1025 30.84 83.2465 30.84C83.3545 30.84 83.5345 30.822 83.7685 30.804C84.0025 30.786 84.1825 30.768 84.2905 30.768C84.3985 30.768 84.5785 30.768 84.8125 30.768C85.3885 30.822 85.6045 31.128 85.4605 31.704C85.2625 32.388 85.0465 33.108 84.7945 33.864C84.7405 34.026 84.6145 34.152 84.3985 34.224C84.1105 34.332 83.8045 34.404 83.4985 34.422C83.0305 34.476 82.0045 34.548 80.4385 34.62C78.8545 34.692 77.8105 34.764 77.3065 34.8ZM75.5965 21.354C77.0545 21.246 77.8645 21.192 78.0445 21.174C78.3505 21.174 78.6925 21.282 79.0525 21.48C79.1245 21.534 79.1965 21.624 79.2685 21.75C79.3225 21.876 79.3585 21.984 79.3585 22.074C79.3405 22.902 79.4485 23.64 79.6645 24.288C79.7545 24.612 79.9525 24.792 80.2405 24.864C81.0685 25.098 82.1305 25.404 83.3905 25.8C83.6065 25.872 83.7505 25.962 83.8405 26.07C83.9125 26.178 83.9125 26.34 83.8225 26.556C83.7505 26.7 83.6965 26.916 83.6605 27.204C83.6065 27.492 83.5705 27.654 83.5525 27.726C83.4445 28.158 83.2285 28.446 82.9405 28.626C82.6345 28.806 82.2385 28.932 81.7705 29.004C81.6985 29.022 81.4645 29.058 81.1045 29.13C80.7445 29.202 80.4565 29.238 80.2765 29.238C79.9885 29.238 79.7185 29.13 79.4305 28.878C79.0885 28.608 78.7825 28.284 78.5125 27.888C78.0985 27.312 77.5945 26.898 76.9825 26.628C76.7305 26.52 76.4605 26.52 76.1365 26.664C75.5245 26.952 74.7685 27.33 73.9045 27.798C73.8685 27.834 73.8145 27.852 73.7605 27.87C73.5085 28.014 73.3105 28.122 73.1665 28.194C73.0225 28.266 72.8245 28.338 72.5905 28.392C72.3385 28.464 72.1225 28.482 71.9065 28.446C71.6365 28.446 71.4565 28.392 71.3665 28.302C71.2585 28.23 71.2045 28.05 71.1685 27.798C71.1325 27.564 71.0785 27.33 71.0065 27.096C70.7185 26.214 70.9885 25.548 71.8345 25.116C73.9225 24.072 75.0025 23.532 75.0925 23.496C75.3085 23.388 75.4705 23.244 75.5425 23.064C75.6145 22.884 75.6685 22.668 75.6865 22.38C75.6865 22.344 75.6505 22.002 75.5965 21.354ZM103.082 20.238C103.082 20.256 103.082 20.274 103.118 20.274C103.154 20.31 103.226 20.328 103.334 20.364C103.442 20.4 103.532 20.418 103.604 20.454C103.676 20.49 103.712 20.526 103.73 20.562C103.82 20.904 103.856 21.3 103.838 21.732C103.82 21.876 103.73 22.83 103.586 24.594C103.46 25.926 103.352 27.258 103.244 28.59C103.118 29.886 103.046 30.66 103.046 30.912C103.01 31.128 102.992 31.416 102.974 31.794C102.956 32.172 102.938 32.514 102.92 32.82C102.884 33.126 102.866 33.414 102.83 33.684C102.794 33.936 102.614 34.296 102.326 34.782C102.254 34.908 102.092 34.962 101.84 34.962C101.786 34.98 101.264 34.98 100.256 34.98C100.076 34.98 99.9325 34.944 99.8245 34.836C99.7165 34.728 99.6445 34.602 99.6445 34.422L99.5185 32.532C99.5185 32.496 99.5005 32.37 99.4825 32.154C99.4465 31.938 99.4465 31.776 99.4645 31.668C99.5005 31.146 99.5725 30.624 99.6805 30.102C99.7345 29.76 99.7165 29.526 99.6085 29.418C99.5005 29.31 99.2845 29.292 98.9605 29.364C98.4565 29.472 98.0425 29.346 97.7185 29.022C97.3765 28.698 97.2505 28.302 97.3405 27.798C97.4125 27.33 97.6105 26.952 97.9345 26.664C98.2405 26.394 98.6365 26.232 99.1405 26.196C99.3745 26.196 99.5905 26.106 99.7705 25.944C99.9505 25.782 100.058 25.584 100.076 25.368C100.094 25.008 100.13 24.45 100.202 23.658C100.256 22.884 100.292 22.29 100.328 21.876C100.346 21.696 100.4 21.372 100.508 20.94C100.598 20.544 100.85 20.364 101.264 20.364C101.732 20.382 102.182 20.382 102.596 20.382C102.596 20.382 102.758 20.346 103.082 20.238ZM90.8965 30.462H94.3525H95.6485C95.9365 30.444 96.1705 30.606 96.3325 30.948C96.6205 31.668 96.6025 32.316 96.2425 32.892C96.0625 33.18 95.7025 33.36 95.1265 33.45C93.4345 33.72 92.2465 33.846 91.5625 33.846C91.5265 33.846 91.3645 33.864 91.0765 33.864C90.7885 33.864 90.6265 33.864 90.5545 33.864C90.4825 33.864 90.3385 33.846 90.1045 33.846C89.8705 33.846 89.6905 33.828 89.5825 33.81C89.4745 33.81 89.3125 33.792 89.1325 33.756C88.9345 33.738 88.7545 33.702 88.6105 33.666C88.4485 33.63 88.2865 33.594 88.1425 33.522C87.8365 33.432 87.6025 33.198 87.4225 32.838C87.2425 32.478 87.1885 32.082 87.2605 31.686C87.3505 31.182 87.4045 30.678 87.4405 30.174C87.4585 29.616 87.4945 28.806 87.5305 27.726C87.5665 26.646 87.5845 25.854 87.6205 25.35C87.6745 24.126 87.7465 23.334 87.8185 22.956C87.8545 22.686 88.0705 22.218 88.4485 21.57C88.4485 21.552 88.4845 21.534 88.5385 21.534C88.5925 21.534 88.6645 21.534 88.7545 21.534C88.8445 21.534 88.8985 21.534 88.9345 21.534C89.8705 21.498 90.4465 21.462 90.6445 21.444C92.1565 21.39 93.0565 21.354 93.3445 21.354C93.9385 21.354 94.6945 21.39 95.6305 21.462C95.8285 21.48 95.9905 21.57 96.0985 21.732C96.4225 22.236 96.5125 22.758 96.3685 23.298C96.2245 23.838 95.8825 24.18 95.3425 24.342C95.0725 24.432 94.8025 24.504 94.5145 24.576C94.2265 24.648 93.8845 24.72 93.4705 24.792C93.0385 24.882 92.7685 24.936 92.6425 24.972C92.4985 25.008 92.2465 25.044 91.8685 25.116C91.4905 25.188 91.2025 25.26 91.0045 25.296C90.6805 25.386 90.5725 25.62 90.6445 25.998C90.7165 26.43 90.8065 26.682 90.8785 26.754C90.9505 26.826 91.1845 26.862 91.5625 26.826C91.7605 26.826 93.0025 26.718 95.2885 26.52H95.3425H95.4145C95.4865 26.538 95.5945 26.538 95.7745 26.52C95.9545 26.502 96.0985 26.52 96.2065 26.556C96.3145 26.592 96.3865 26.7 96.4225 26.844C96.6385 27.744 96.5845 28.374 96.2785 28.716C96.0085 29.004 95.5405 29.202 94.8745 29.292C94.5865 29.346 94.1725 29.382 93.6325 29.4C93.0925 29.418 92.7145 29.436 92.5345 29.436C92.4985 29.436 92.4085 29.454 92.2285 29.454C92.0485 29.472 91.9405 29.49 91.8865 29.49C91.8325 29.508 91.7425 29.526 91.6165 29.562C91.4905 29.598 91.3825 29.634 91.2925 29.688C91.2025 29.742 91.1125 29.814 91.0405 29.886C91.0225 29.904 90.9505 30.03 90.8065 30.246C90.8425 30.336 90.8605 30.408 90.8965 30.462ZM116.888 19.536C117.572 19.5 117.95 19.482 117.986 19.482C118.382 19.5 118.76 19.536 119.156 19.59C119.552 19.644 119.894 19.68 120.2 19.698C120.542 19.734 120.722 19.932 120.74 20.274C120.74 20.706 120.776 21.372 120.83 22.254C120.884 23.154 120.92 23.82 120.938 24.27C120.956 24.612 120.956 25.224 120.956 26.088C120.956 26.97 120.956 27.582 120.956 27.906C120.956 28.392 120.956 29.382 120.956 30.894C120.956 32.406 120.956 33.414 120.956 33.9V33.936C120.956 34.188 120.92 34.44 120.848 34.656C120.686 35.106 120.398 35.322 119.984 35.304C119.786 35.304 119.552 35.322 119.3 35.322C119.048 35.322 118.832 35.322 118.652 35.286C118.508 35.286 118.346 35.232 118.202 35.142C118.04 35.07 117.932 34.962 117.896 34.854C117.536 33.99 117.356 33.324 117.338 32.856C117.284 31.812 117.248 30.03 117.23 27.546C117.212 25.062 117.194 23.37 117.158 22.452C117.158 22.164 117.14 21.876 117.104 21.552C117.068 21.228 117.032 20.868 116.996 20.454L116.888 19.536ZM105.854 21.606C108.23 21.714 109.544 21.75 109.76 21.75C109.958 21.768 110.336 21.804 110.876 21.84C111.416 21.876 111.848 21.912 112.136 21.912C112.604 21.93 113.198 21.894 113.936 21.822C114.296 21.786 114.602 21.876 114.818 22.056C115.034 22.236 115.16 22.452 115.232 22.704C115.286 22.956 115.304 23.226 115.268 23.514C115.25 23.622 115.214 23.784 115.142 23.982C115.07 24.18 115.034 24.324 115.034 24.414C114.998 24.81 114.764 25.008 114.368 25.008C113.432 25.044 112.694 25.044 112.19 25.026C111.92 25.026 111.02 24.99 109.49 24.9L109.166 24.864C108.788 24.792 108.554 24.918 108.446 25.206C108.32 25.512 108.266 25.692 108.266 25.764C108.266 27.744 108.302 29.166 108.338 30.048C108.338 30.102 108.374 30.156 108.446 30.21C108.518 30.282 108.572 30.3 108.626 30.3C108.806 30.336 109.076 30.354 109.436 30.372C109.796 30.39 110.03 30.408 110.156 30.408C112.172 30.57 113.594 30.696 114.44 30.768C114.494 30.768 114.566 30.84 114.638 30.948C114.71 31.074 114.764 31.182 114.764 31.254C114.728 31.902 114.674 32.316 114.602 32.496C114.53 32.676 114.26 33 113.81 33.504C113.702 33.612 113.558 33.684 113.414 33.684C113.252 33.702 112.838 33.72 112.19 33.756C111.542 33.792 111.038 33.846 110.696 33.882C109.508 34.044 108.176 33.918 106.7 33.522C106.412 33.45 106.178 33.324 105.998 33.162C105.818 33 105.71 32.748 105.638 32.424C105.494 31.848 105.386 31.182 105.35 30.462C105.314 29.742 105.296 29.094 105.314 28.5C105.332 27.924 105.332 27.276 105.314 26.556C105.278 25.404 105.386 24.216 105.656 23.028C105.656 22.992 105.728 22.506 105.854 21.606ZM131.728 20.274C131.908 20.274 132.286 20.274 132.844 20.31C133.384 20.346 133.78 20.346 134.014 20.328C134.122 20.328 134.302 20.328 134.536 20.328C134.752 20.346 134.932 20.346 135.04 20.328C136.426 20.256 137.632 20.31 138.658 20.526C139.45 20.706 139.792 21.228 139.72 22.092C139.684 22.398 139.648 23.046 139.612 24.018C139.576 24.558 139.558 24.99 139.54 25.314C139.504 25.638 139.45 26.016 139.36 26.484C139.27 26.952 139.144 27.348 139 27.708C138.874 28.014 138.712 28.23 138.496 28.356C137.956 28.698 137.47 28.932 137.056 29.058C136.894 29.094 136.786 29.094 136.714 29.094C136.642 29.094 136.516 29.094 136.336 29.076C136.156 29.058 136.048 29.04 135.976 29.04C134.356 28.986 133.438 28.95 133.24 28.932C132.88 28.914 132.52 28.734 132.196 28.374C131.854 28.014 131.656 27.654 131.62 27.294C131.548 26.826 131.53 26.304 131.53 25.728C131.53 25.152 131.548 24.72 131.584 24.396C131.602 24.09 131.638 23.568 131.71 22.83C131.728 22.578 131.746 22.326 131.746 22.038C131.746 21.768 131.728 21.444 131.728 21.084C131.728 20.724 131.728 20.454 131.728 20.274ZM134.194 22.812V25.17C134.194 25.458 134.248 25.656 134.338 25.728C134.428 25.818 134.626 25.872 134.932 25.872C135.004 25.872 135.148 25.89 135.328 25.89C135.508 25.89 135.634 25.89 135.742 25.89C135.958 25.89 136.174 25.836 136.354 25.692C136.534 25.548 136.624 25.386 136.642 25.17C136.678 24.144 136.57 23.298 136.3 22.632L134.194 22.812ZM145.084 25.8V28.122C145.084 28.32 145.048 28.68 145.012 29.184C144.976 29.472 144.796 29.634 144.508 29.634C143.86 29.652 143.32 29.652 142.852 29.616C142.582 29.616 142.348 29.508 142.168 29.328C141.988 29.148 141.88 28.932 141.88 28.68C141.862 27.636 141.862 26.34 141.88 24.792C141.88 24.702 141.88 24 141.916 22.686C141.934 21.39 141.952 20.58 141.97 20.292C141.97 19.932 142.096 19.698 142.348 19.554C142.402 19.518 142.51 19.464 142.672 19.374C142.834 19.302 142.96 19.23 143.05 19.194C143.122 19.158 143.23 19.122 143.374 19.068C143.518 19.014 143.644 18.978 143.77 18.96C143.896 18.942 144.022 18.942 144.166 18.942C144.382 18.96 144.544 18.978 144.652 19.014C144.904 19.122 145.03 19.302 145.03 19.572C145.03 19.806 145.03 20.4 145.066 21.372C145.102 22.344 145.12 22.92 145.156 23.1C145.174 23.244 145.282 23.334 145.498 23.352C146.362 23.424 146.848 23.46 146.956 23.478C147.208 23.55 147.37 23.748 147.406 24.108C147.46 24.648 147.37 25.134 147.118 25.548C147.046 25.674 146.83 25.764 146.506 25.8H145.084ZM137.686 32.424C140.134 32.28 141.52 32.208 141.826 32.172C142.132 32.154 142.492 32.118 142.924 32.082C143.356 32.046 143.716 32.01 144.004 31.974C144.292 31.938 144.544 31.92 144.724 31.92C144.958 31.92 145.138 32.226 145.246 32.802C145.264 32.928 145.282 33.18 145.282 33.54C145.282 33.954 145.174 34.368 144.958 34.8C144.886 34.926 144.724 35.016 144.472 35.052C144.22 35.088 143.374 35.142 141.934 35.214C140.494 35.286 139.648 35.34 139.378 35.376C139.306 35.394 139.252 35.394 139.18 35.394C138.874 35.394 138.226 35.412 137.236 35.43C136.246 35.448 135.526 35.466 135.076 35.484C134.968 35.484 134.77 35.502 134.518 35.52C134.266 35.538 134.068 35.538 133.942 35.538C133.528 35.538 133.186 35.466 132.934 35.304C132.844 35.268 132.772 35.178 132.7 35.07C132.628 34.962 132.61 34.872 132.61 34.764C132.556 34.242 132.52 33.504 132.484 32.532C132.448 31.56 132.412 30.894 132.394 30.516L132.376 30.264C132.376 30.084 132.376 29.922 132.376 29.742L132.358 29.49C132.394 29.49 132.484 29.472 132.646 29.436C132.808 29.4 132.916 29.364 132.97 29.346C133.096 29.328 133.384 29.31 133.834 29.31C134.356 29.31 134.68 29.346 134.824 29.382C134.968 29.436 135.04 29.526 135.04 29.652C135.04 29.706 135.058 29.832 135.094 30.012C135.13 30.192 135.166 30.318 135.166 30.372C135.166 30.57 135.202 30.93 135.31 31.47C135.31 31.542 135.328 31.704 135.364 31.938C135.382 32.172 135.418 32.37 135.472 32.55L137.686 32.424ZM157.054 28.464C155.578 28.536 154.786 28.554 154.642 28.554C151.726 28.554 150.088 28.518 149.692 28.41C149.332 28.32 149.134 28.14 149.08 27.888C149.026 27.636 149.062 27.258 149.206 26.754C149.26 26.682 149.296 26.592 149.314 26.466C149.332 26.34 149.386 26.232 149.476 26.16C149.512 26.124 149.602 26.088 149.728 26.088H152.752H155.776C155.866 26.088 156.1 26.106 156.496 26.142C156.892 26.178 157.108 26.214 157.162 26.214C157.27 26.214 158.26 26.232 160.096 26.268C161.932 26.304 162.994 26.322 163.282 26.358C163.336 26.358 163.408 26.412 163.48 26.484C163.552 26.556 163.606 26.628 163.624 26.682C163.696 27.15 163.696 27.51 163.624 27.762C163.516 28.158 163.174 28.374 162.598 28.41C162.418 28.428 161.482 28.446 159.808 28.446C158.116 28.464 157.198 28.482 157.054 28.482V28.464ZM153.49 22.92C155.506 22.812 156.586 22.74 156.73 22.722L158.674 22.596L160.816 22.506L162.058 22.65C162.076 22.668 162.112 22.686 162.148 22.686C162.184 22.704 162.238 22.74 162.328 22.776C162.418 22.83 162.49 22.884 162.562 22.938C162.616 22.992 162.67 23.064 162.706 23.154C162.742 23.244 162.76 23.334 162.742 23.424C162.706 23.604 162.652 23.802 162.58 23.982C162.508 24.162 162.436 24.378 162.346 24.612C162.238 24.864 162.184 25.026 162.148 25.116C159.142 25.188 157.54 25.206 157.324 25.188C157.216 25.188 155.542 25.134 152.266 25.026H151.834H151.402C150.97 25.026 150.7 24.972 150.592 24.864C150.466 24.756 150.412 24.54 150.448 24.234C150.448 24.054 150.484 23.766 150.574 23.406C150.646 23.046 150.7 22.848 150.7 22.794C150.718 22.668 150.754 22.47 150.79 22.218C150.826 21.966 150.844 21.768 150.88 21.642L151.168 20.076L153.076 19.266C154.696 19.338 155.938 19.284 156.766 19.086C156.874 19.05 156.982 19.032 157.108 19.014C157.234 19.014 157.378 19.014 157.54 19.014C157.684 19.014 157.81 19.032 157.918 19.032C158.008 19.032 158.152 19.05 158.35 19.068C158.548 19.086 158.674 19.104 158.746 19.104C159.142 19.14 159.7 19.212 160.456 19.284C161.194 19.374 161.734 19.428 162.058 19.446C162.31 19.482 162.49 19.536 162.598 19.608C162.706 19.68 162.742 19.806 162.706 19.986L162.508 21.102C162.112 21.498 161.734 21.678 161.374 21.678C161.014 21.696 160.492 21.696 159.808 21.696C159.124 21.696 158.638 21.678 158.35 21.678C157.342 21.678 156.442 21.696 155.668 21.732C155.506 21.75 155.254 21.786 154.93 21.822C154.588 21.858 154.336 21.876 154.156 21.876C153.94 21.894 153.796 21.93 153.706 21.984C153.598 22.038 153.562 22.128 153.562 22.254C153.544 22.29 153.526 22.524 153.49 22.92ZM151.834 31.578C151.798 31.578 151.708 31.596 151.564 31.596C151.42 31.614 151.312 31.614 151.258 31.614C151.186 31.614 151.114 31.614 151.006 31.596C150.898 31.578 150.808 31.542 150.772 31.506C150.718 31.47 150.664 31.398 150.61 31.326C150.556 31.254 150.52 31.146 150.52 31.02C150.502 30.948 150.484 30.84 150.448 30.66C150.412 30.48 150.394 30.336 150.394 30.21C150.394 30.048 150.412 29.886 150.466 29.706C150.466 29.634 150.52 29.562 150.628 29.49C150.736 29.418 150.844 29.364 150.97 29.364C155.83 29.364 159.214 29.4 161.158 29.508C161.554 29.544 161.86 29.58 162.094 29.652C162.364 29.742 162.526 29.868 162.58 30.012C162.634 30.228 162.67 30.462 162.67 30.696C162.67 30.966 162.616 31.29 162.544 31.668C162.4 32.298 162.04 32.748 161.446 33C161.122 33.144 160.528 33.252 159.682 33.324C159.376 33.36 158.944 33.378 158.368 33.378C157.792 33.396 157.396 33.414 157.162 33.414C157.126 33.414 156.478 33.432 155.236 33.45C153.976 33.468 153.292 33.486 153.166 33.522L153.184 33.954C153.4 33.954 154.21 33.954 155.614 33.936C157.018 33.918 157.846 33.9 158.062 33.9C158.548 33.9 158.98 33.9 159.358 33.882C159.61 33.882 160.006 33.864 160.528 33.828C161.032 33.792 161.41 33.774 161.662 33.774H161.698C162.022 33.774 162.202 33.882 162.202 34.098V34.188C162.094 34.692 162.004 35.088 161.932 35.34C161.842 35.592 161.698 35.772 161.5 35.88C161.302 35.988 160.978 36.024 160.51 36.024H160.294C159.826 36.024 159.16 35.988 158.314 35.934C157.468 35.88 156.874 35.844 156.532 35.826C155.992 35.808 155.524 35.808 155.11 35.826C154.696 35.844 154.228 35.844 153.724 35.826C153.22 35.808 152.77 35.754 152.374 35.682C151.834 35.574 151.456 35.394 151.24 35.142C151.024 34.89 150.898 34.566 150.826 34.134C150.808 34.062 150.808 33.864 150.808 33.558C150.808 33.54 150.808 33.414 150.826 33.18C150.826 32.838 150.934 32.604 151.114 32.46C151.294 32.334 151.6 32.262 152.068 32.244C153.796 32.208 156.082 32.136 158.944 32.028C159.304 32.028 159.484 31.902 159.484 31.686L159.466 31.596C159.466 31.542 159.466 31.488 159.466 31.434V31.326C159.466 31.308 159.376 31.29 159.196 31.29C159.016 31.29 158.692 31.29 158.224 31.308C157.756 31.326 157.27 31.344 156.748 31.362C156.226 31.398 155.488 31.434 154.552 31.47C153.616 31.506 152.698 31.542 151.834 31.578ZM178.096 19.536C178.78 19.5 179.158 19.482 179.194 19.482C179.59 19.5 179.968 19.536 180.364 19.59C180.76 19.644 181.102 19.68 181.408 19.698C181.75 19.734 181.93 19.932 181.948 20.274C181.948 20.706 181.984 21.372 182.038 22.254C182.092 23.154 182.128 23.82 182.146 24.27C182.164 24.612 182.164 25.224 182.164 26.088C182.164 26.97 182.164 27.582 182.164 27.906C182.164 28.392 182.164 29.382 182.164 30.894C182.164 32.406 182.164 33.414 182.164 33.9V33.936C182.164 34.188 182.128 34.44 182.056 34.656C181.894 35.106 181.606 35.322 181.192 35.304C180.994 35.304 180.76 35.322 180.508 35.322C180.256 35.322 180.04 35.322 179.86 35.286C179.716 35.286 179.554 35.232 179.41 35.142C179.248 35.07 179.14 34.962 179.104 34.854C178.744 33.99 178.564 33.324 178.546 32.856C178.492 31.812 178.456 30.03 178.438 27.546C178.42 25.062 178.402 23.37 178.366 22.452C178.366 22.164 178.348 21.876 178.312 21.552C178.276 21.228 178.24 20.868 178.204 20.454L178.096 19.536ZM166.666 22.308C166.792 22.092 166.99 21.948 167.242 21.894C168.718 21.624 169.852 21.426 170.644 21.318C171.832 21.156 172.93 21.138 173.956 21.282C173.974 21.282 174.028 21.3 174.136 21.3C174.226 21.318 174.298 21.336 174.334 21.336C174.37 21.336 174.442 21.354 174.514 21.372C174.586 21.39 174.64 21.408 174.694 21.444C174.748 21.48 174.802 21.534 174.856 21.57C174.946 21.66 175.036 21.84 175.144 22.11C175.594 23.406 175.792 24.846 175.72 26.466C175.684 27.06 175.594 27.924 175.45 29.076C175.414 29.328 175.378 29.868 175.324 30.732C175.27 31.596 175.18 32.244 175.072 32.694C174.946 33.198 174.784 33.522 174.604 33.702C174.46 33.846 174.028 33.954 173.344 33.99C172.66 34.044 172.03 34.044 171.49 34.008C171.202 34.008 171.058 33.918 171.022 33.738C170.986 33.666 170.986 33.594 171.022 33.486C171.04 33.378 171.076 33.27 171.112 33.144C171.148 33.036 171.166 32.946 171.166 32.892C171.22 32.568 171.274 32.244 171.31 31.902C171.382 31.308 171.418 30.66 171.454 29.958C171.472 29.094 171.454 27.816 171.4 26.106C171.382 25.854 171.346 25.674 171.292 25.566C171.13 25.278 170.752 25.206 170.176 25.332C169.51 25.494 168.322 25.548 166.612 25.476C166.522 25.476 166.468 25.458 166.432 25.422C166.378 25.386 166.36 25.278 166.378 25.134C166.486 23.406 166.576 22.452 166.666 22.308Z" fill="white"/>
</g>
<defs>
<clipPath id="clip0_1_37662">
<rect width="252" height="57" fill="white"/>
</clipPath>
</defs>
</svg>
